<svg width="24" height="24" viewBox="0 0 24 24" fill="none" xmlns="http://www.w3.org/2000/svg">
<path d="M23.1863 19.3182L19.6257 15.7576C18.6263 14.7581 17.0058 14.7581 16.0063 15.7576L15.4492 16.3147C15.0009 16.7619 14.6894 17.3277 14.5512 17.9456C13.3444 17.9682 11.9795 17.763 10.8121 17.0056C10.0951 16.4726 9.41798 15.8879 8.78622 15.2562C8.25254 14.7228 7.75212 14.1571 7.28782 13.5624C6.37802 12.3401 6.13793 10.8567 6.16221 9.55664C6.78019 9.41847 7.34596 9.10697 7.79318 8.65865L8.35024 8.10159C9.34971 7.10212 9.34971 5.48165 8.35024 4.48214L4.78966 0.92156C4.12333 0.255232 3.043 0.255232 2.37672 0.92156L1.76542 1.533C0.981766 2.31665 0.58061 3.33731 0.55975 4.3643C0.359078 6.53109 0.774063 8.91637 1.75989 11.2623C2.4108 12.8113 3.30447 14.3237 4.39286 15.7295C4.4066 15.7478 4.41963 15.7665 4.43355 15.7848L4.43514 15.7836C4.99083 16.4964 5.58995 17.1743 6.2291 17.8134C6.88966 18.4745 7.59149 19.093 8.33036 19.6651L8.32324 19.6746C8.44634 19.7679 8.5719 19.8579 8.69979 19.9446C11.8058 22.242 15.3164 23.5327 18.5832 23.5325C18.7741 23.5324 18.9643 23.527 19.1535 23.5181C20.3703 23.6677 21.6409 23.2766 22.575 22.3425L23.1864 21.7312C23.8527 21.0648 23.8527 19.9845 23.1863 19.3182Z" fill="#074205"/>
</svg>
