<svg width="29" height="29" viewBox="0 0 29 29" fill="none" xmlns="http://www.w3.org/2000/svg">
<path d="M5.54183 16.4684L5.21558 16.4539H2.28567L6.19342 12.5461L6.17892 12.2199C6.17141 11.9668 6.0675 11.7261 5.88844 11.547C5.70938 11.3679 5.46869 11.264 5.21558 11.2565L4.89023 11.2429H0.00463867L0.0236699 11.5683C0.0608262 12.0975 0.447795 12.499 0.98067 12.5316L1.30692 12.5461H4.24317L0.329076 16.4539L0.343576 16.7801C0.353004 17.0326 0.457525 17.2722 0.636184 17.4509C0.814843 17.6295 1.05443 17.734 1.30692 17.7435L1.63317 17.7571H6.51876L6.50426 17.4317C6.46167 16.8979 6.07923 16.5064 5.54092 16.4738L5.54183 16.4684ZM9.45411 11.2438H9.44958C5.10773 11.2484 5.11136 17.7571 9.44958 17.7571C13.7923 17.7571 13.7923 11.2493 9.45411 11.2438ZM10.8325 15.8838C10.6527 16.073 10.4368 16.2242 10.1976 16.3285C9.95837 16.4329 9.70066 16.4882 9.4397 16.4912C9.17873 16.4943 8.91981 16.445 8.67821 16.3463C8.43662 16.2475 8.21727 16.1014 8.03311 15.9165C7.8488 15.7319 7.70323 15.5124 7.60494 15.2709C7.50665 15.0293 7.45763 14.7705 7.46076 14.5097C7.46388 14.2489 7.51909 13.9914 7.62313 13.7522C7.72718 13.5131 7.87797 13.2971 8.06664 13.1171C9.91176 11.3662 12.5834 14.0378 10.8325 15.8838ZM26.3856 11.2438C25.6397 11.2438 24.932 11.5637 24.4362 12.1256C24.0166 11.6506 23.4384 11.3447 22.8096 11.265C22.1808 11.1852 21.5446 11.3372 21.0197 11.6924C20.7695 11.4088 20.1977 11.2438 19.8769 11.2438V17.7571L20.2031 17.7435C20.746 17.7045 21.142 17.323 21.161 16.7801L21.1792 16.4539V14.1737L21.1937 13.8484C21.2082 13.6028 21.2408 13.3853 21.3541 13.1968C21.5268 12.8975 21.8113 12.679 22.1451 12.5894C22.4789 12.4999 22.8346 12.5466 23.134 12.7192C23.3324 12.8325 23.4919 12.9983 23.6052 13.1914C23.7185 13.3844 23.7511 13.6019 23.7656 13.8475L23.7846 14.1728V16.453L23.7982 16.7792C23.8318 17.3076 24.2233 17.7036 24.7616 17.7426L25.0878 17.7562V14.1737L25.1014 13.8484C25.1114 13.6082 25.1485 13.3808 25.2618 13.1923C25.3762 12.9941 25.5409 12.8296 25.7392 12.7155C25.9375 12.6013 26.1624 12.5414 26.3912 12.542C26.6201 12.5426 26.8447 12.6035 27.0424 12.7186C27.2402 12.8337 27.404 12.999 27.5175 13.1977C27.6262 13.3862 27.6598 13.6082 27.6734 13.8493L27.6924 14.1747V16.4548L27.7069 16.781C27.7169 17.0333 27.8217 17.2725 28.0002 17.4511C28.1787 17.6296 28.418 17.7343 28.6702 17.7444L28.9956 17.758V13.8502C28.9946 13.1587 28.7192 12.4959 28.2298 12.0073C27.7404 11.5188 27.0771 11.2445 26.3856 11.2447V11.2438ZM13.9899 12.1972C13.6745 12.4963 13.4222 12.8555 13.248 13.2537C13.0737 13.6519 12.981 14.0809 12.9752 14.5155C12.9695 14.9501 13.0508 15.3815 13.2145 15.7841C13.3782 16.1868 13.6209 16.5526 13.9283 16.8599C14.2354 17.1677 14.601 17.4109 15.0037 17.575C15.4063 17.7392 15.8378 17.821 16.2725 17.8157C16.7073 17.8104 17.1366 17.718 17.5351 17.544C17.9336 17.3701 18.2932 17.118 18.5927 16.8028C21.5145 13.7351 17.0585 9.28 13.9899 12.1963V12.1972ZM17.672 15.8838C17.4915 16.0703 17.2756 16.219 17.037 16.3212C16.7985 16.4234 16.5419 16.4771 16.2824 16.4791C16.0228 16.4811 15.7655 16.4314 15.5253 16.3328C15.2852 16.2343 15.0671 16.0889 14.8838 15.9052C14.7004 15.7215 14.5555 15.5031 14.4574 15.2628C14.3594 15.0225 14.3102 14.7651 14.3127 14.5055C14.3152 14.246 14.3693 13.9895 14.472 13.7511C14.5747 13.5128 14.7238 13.2972 14.9106 13.1171C16.7512 11.3236 19.47 14.0378 17.672 15.8838Z" fill="#074205"/>
</svg>
