<svg width="21" height="21" viewBox="0 0 21 21" fill="#fff" xmlns="http://www.w3.org/2000/svg">
<path d="M20.2881 16.9035L17.1726 13.7879C16.2981 12.9134 14.8802 12.9134 14.0056 13.7879L13.5182 14.2754C13.1259 14.6667 12.8533 15.1617 12.7324 15.7025C11.6764 15.7222 10.4821 15.5426 9.46069 14.8799C8.83329 14.4136 8.24082 13.902 7.68804 13.3492C7.22106 12.8825 6.7832 12.3875 6.37693 11.8671C5.58086 10.7976 5.37078 9.49968 5.39202 8.36211C5.93275 8.24122 6.42781 7.96865 6.81912 7.57638L7.30655 7.08895C8.18109 6.21441 8.18109 4.7965 7.30655 3.92192L4.19104 0.806418C3.60801 0.223381 2.66272 0.223381 2.07972 0.806418L1.54484 1.34143C0.859137 2.02713 0.508125 2.9202 0.489873 3.81881C0.314285 5.71476 0.677397 7.80188 1.54 9.85459C2.10954 11.2099 2.8915 12.5333 3.84385 13.7633C3.85586 13.7794 3.86727 13.7957 3.87945 13.8117L3.88084 13.8107C4.36706 14.4344 4.8913 15.0276 5.45055 15.5868C6.02854 16.1652 6.64264 16.7064 7.28916 17.207L7.28293 17.2153C7.39064 17.297 7.5005 17.3758 7.6124 17.4516C10.3301 19.4618 13.4019 20.5911 16.2604 20.591C16.4274 20.5909 16.5938 20.5862 16.7594 20.5784C17.8241 20.7093 18.9359 20.3671 19.7532 19.5498L20.2882 19.0148C20.8712 18.4318 20.8712 17.4865 20.2881 16.9035V16.9035Z" fill="white"/>
</svg>
